<svg width="87" height="102" viewBox="0 0 87 102" fill="none" xmlns="http://www.w3.org/2000/svg">
<rect width="86.8878" height="102" rx="8" fill="#F3F5F6"/>
<path d="M54.9991 41.7196H31.8888V60.2804L45.3101 47.9587C45.5809 47.7101 45.9483 47.5705 46.3313 47.5705C46.7143 47.5705 47.0816 47.7101 47.3525 47.9587L54.9991 54.9906V41.7196ZM29 40.3845C29.0026 40.0364 29.1544 39.7031 29.4225 39.4568C29.6906 39.2105 30.0535 39.0708 30.4328 39.0681H56.455C57.2465 39.0681 57.8879 39.658 57.8879 40.3845V61.6154C57.8852 61.9636 57.7334 62.2969 57.4653 62.5432C57.1973 62.7895 56.8343 62.9292 56.455 62.9319H30.4328C30.0527 62.9316 29.6882 62.7927 29.4196 62.5459C29.1509 62.299 29 61.9644 29 61.6154V40.3845ZM37.6664 49.6742C36.9002 49.6742 36.1654 49.3949 35.6237 48.8976C35.0819 48.4003 34.7776 47.7259 34.7776 47.0227C34.7776 46.3194 35.0819 45.645 35.6237 45.1478C36.1654 44.6505 36.9002 44.3711 37.6664 44.3711C38.4325 44.3711 39.1673 44.6505 39.709 45.1478C40.2508 45.645 40.5551 46.3194 40.5551 47.0227C40.5551 47.7259 40.2508 48.4003 39.709 48.8976C39.1673 49.3949 38.4325 49.6742 37.6664 49.6742Z" fill="#343A40" fill-opacity="0.4"/>
</svg>
